# xmcd
#
# Track frame offsets:
#	150
#	18091
#	36249
#	49035
#	65134
#	79247
#	93145
#	109235
#	122929
#	138834
#	152436
#	165486
#	178709
#	196539
#	211717
#	223752
#
# Disc length: 3216 seconds
# Revision: 0
# Processed by: cddbd v1.5.2PL0 Copyright (c) Steve Scherf et al.
# Submitted via: dBpowerAMP V12.0
#
DISCID=d00c8e10
DTITLE=Fede Finn and Funny Boyz - Kærligheden Brænder
DYEAR=2010
DGENRE=Pop
TTITLE0=Kærligheden Brænder
TTITLE1=Sugar Baby
TTITLE2=Volvo B18-210
TTITLE3=Se Venedig og dø
TTITLE4=Fransklærerinden
TTITLE5=Det er hans kys
TTITLE6=Arrividerci Mona
TTITLE7=Alle mand på dæk
TTITLE8=Hun si`r jeg ligner ELVIS
TTITLE9=Ingen er så lækker som dig
TTITLE10=Det ka`bli`en dejlig dag
TTITLE11=G-strengs trusser
TTITLE12=Vi vil se jeres bryster
TTITLE13=Kærlighedens svaj
TTITLE14=Psykologen fra Ribe
TTITLE15=Kærligheden Brænder (Disco version)
EXTD=
EXTT0=
EXTT1=
EXTT2=
EXTT3=
EXTT4=
EXTT5=
EXTT6=
EXTT7=
EXTT8=
EXTT9=
EXTT10=
EXTT11=
EXTT12=
EXTT13=
EXTT14=
EXTT15=
PLAYORDER=
